<?xml version="1.0" standalone="no"?>
<!DOCTYPE svg PUBLIC "-//W3C//DTD SVG 1.1//EN" "http://www.w3.org/Graphics/SVG/1.1/DTD/svg11.dtd">
<svg xmlns="http://www.w3.org/2000/svg">
<metadata>Generated by Fontastic.me</metadata>
<defs>
<font id="totalpass-icons" horiz-adv-x="512">
<font-face font-family="totalpass-icons" units-per-em="512" ascent="480" descent="-32"/>
<missing-glyph horiz-adv-x="512" />

<glyph glyph-name="check-circle" unicode="&#97;" d="M512 256c0-141-115-256-256-256-141 0-256 115-256 256 0 141 115 256 256 256 141 0 256-115 256-256z m-121 111c-7 7-18 7-25 0l-177-192-67 73c-3 3-7 5-12 5-4 0-9-2-12-5-3-4-5-8-5-13 0-5 2-10 5-13l79-86c4-4 8-6 12-6 5 0 9 2 13 6l189 205c3 3 5 8 5 13 0 5-2 9-5 13z"/>
<glyph glyph-name="network" unicode="&#98;" d="M296 408c12 11 20 27 20 44 0 33-27 60-60 60-33 0-60-27-60-60 0-17 8-33 20-44-36-7-62-38-62-75l0-34c0-5 3-9 8-9l188 0c5 0 8 4 8 9l0 34c0 37-26 68-62 75z m-83 44c0 24 19 43 43 43 24 0 43-19 43-43 0-23-19-42-43-42-24 0-43 19-43 42z m128-145l-170 0 0 26c0 33 26 60 59 60l52 0c33 0 59-27 59-60z m-198-189c12 11 19 27 19 44 0 33-27 60-60 60-33 0-59-27-59-60 0-17 7-33 19-44-35-7-62-38-62-75l0-34c0-5 4-9 9-9l187 0c5 0 9 4 9 9l0 34c0 37-27 68-62 75z m-83 44c0 24 19 43 42 43 24 0 43-19 43-43 0-23-19-43-43-43-23 0-42 20-42 43z m128-145l-171 0 0 26c0 33 27 59 60 59l51 0c33 0 60-26 60-59z m262 101c12 11 19 27 19 44 0 33-26 60-59 60-33 0-60-27-60-60 0-17 7-33 19-44-35-7-62-38-62-75l0-34c0-5 4-9 9-9l187 0c5 0 9 4 9 9l0 34c0 37-27 68-62 75z m-83 44c0 24 19 43 43 43 23 0 42-19 42-43 0-23-19-43-42-43-24 0-43 20-43 43z m128-145l-171 0 0 26c0 33 27 59 60 59l51 0c33 0 60-26 60-59z m-444 222l-17 0c1-6 1-12 2-18l17 2c-1 5-1 11-2 16z m-15 35c-1-6-1-12-2-18l17 0c1 5 1 11 2 16z m86 150c-5-4-10-7-14-11l11-13c4 4 9 7 13 10z m-67-82c-2-5-5-11-7-16l16-6c2 5 4 10 7 15z m-12-33c-2-6-3-12-5-18l17-3c1 5 3 11 4 16z m52 91c-4-4-8-9-12-13l14-11c3 4 7 9 10 12z m56 43c-5-3-10-6-15-9l9-14c5 3 10 6 14 8z m-78-70c-4-5-7-10-10-15l15-9c3 5 6 10 9 14z m143-326l-4-17c6-1 12-2 18-3l2 17c-6 1-11 2-16 3z m81 0c-5-1-11-2-16-3l2-17c6 1 12 2 17 3z m-33-4c-5 0-10 0-16 0l-1-17c3 0 6 0 9 0 3 0 6 0 9 0z m140 370l-11-13c4-4 8-8 12-12l12 12c-4 4-8 9-13 13z m25-26l-14-11c4-4 7-9 10-13l14 10c-3 5-7 9-10 14z m49-131l-17 0c0-3 0-6 0-9 0-2 0-5 0-8l17 0c0 2 0 5 0 8 0 3 0 6 0 9z m-29 102l-15-9c3-5 5-9 7-14l16 7c-3 5-5 11-8 16z m15-32l-16-6c2-6 3-11 5-16l16 5c-1 5-3 11-5 17z m9-35l-16-3c1-5 2-11 2-16l17 2c0 6-1 12-3 17z m-97 143l-9-14c4-3 9-6 13-10l11 14c-5 3-10 7-15 10z m-31 17l-7-16c5-2 10-4 15-7l8 15c-5 3-11 6-16 8z"/>
<glyph glyph-name="upload-circle" unicode="&#99;" d="M256 512c-141 0-256-115-256-256 0-141 115-256 256-256 141 0 256 115 256 256 0 141-115 256-256 256z m0-5c139 0 251-112 251-251 0-139-112-251-251-251-139 0-251 112-251 251 0 139 112 251 251 251z m1-174c-2 2-5 2-7 0l-60-63c-4-3-1-9 3-9l26 0 0-83c0-2 2-5 5-5l59 0c3 0 6 3 6 5l0 83 25 0c5 0 7 6 4 9z"/>
<glyph glyph-name="error-circle" unicode="&#100;" d="M512 256c0-141-115-256-256-256-141 0-256 115-256 256 0 141 115 256 256 256 141 0 256-115 256-256z m-155-66l-75 74 75 75c7 7 7 19 0 26-8 7-19 7-27 0l-74-75-74 75c-8 7-19 7-27 0-7-7-7-19 0-26l75-75-75-74c-7-7-7-19 0-26 8-7 19-7 27 0l74 74 74-74c8-7 19-7 27 0 7 7 7 19 0 26z"/>
<glyph glyph-name="cog" unicode="&#101;" d="M228 490c-16 0-28-12-28-27l0-44c0-5-2-9-7-11l-1-1c-4-2-9-1-13 3l-31 31c-11 10-28 11-38-1l-39-38c-5-5-8-12-8-20 0-7 3-14 7-20l31-31c4-4 5-8 3-13-2-4-6-6-12-6l-43 0c-15 0-27-12-27-28l0-54c0-16 12-28 27-28l44 0c5 0 9-2 11-8 3-6 2-9-2-14l-31-30c-5-5-8-12-8-20 0-7 3-14 8-19l39-40c11-10 29-11 39 0l31 31c4 4 9 5 13 3l0-1c6-2 8-6 8-11l0-44c0-14 12-27 28-27l54 0c15 0 28 12 28 27l0 44c0 5 2 9 8 11 5 3 9 2 13-2l31-31c11-11 29-10 39 0l39 39c5 5 8 12 8 20 0 7-3 14-8 20l-31 30c-4 5-5 9-3 14 2 5 7 8 12 8l44 0c14 0 27 12 27 28l0 55c-2 15-14 27-29 27l-43 0c-6 0-10 2-12 7-2 6-2 10 2 14l31 31c5 5 8 12 8 20 0 7-3 13-8 19l-39 39c-10 10-29 11-39 0l-30-30c-4-4-9-5-14-3-6 2-8 6-8 12l0 41c1 16-11 28-27 28z m0-7l54 0c12 0 20-9 20-20l-1 0 0-42c0-8 5-16 13-19 7-3 16-2 22 4l31 31c7 8 21 7 27 0l39-39c4-5 6-10 6-14 0-6-2-11-5-15l-31-30c-6-6-7-15-4-22 3-9 10-13 19-13l43 0c12 0 20-8 22-20l0-54c0-12-10-20-20-20l-44 0c-8 0-15-6-19-13-3-7-2-16 5-22l30-30c4-5 6-10 6-15 0-6-2-11-6-14l-39-39c-7-7-20-8-28 0l-30 30c-6 6-14 8-22 5-8-3-13-11-13-19l0-44c0-11-9-20-20-20l-54 0c-12 0-20 10-20 20l0 44c0 8-5 15-13 19-7 3-16 2-22-5l-30-30c-7-8-20-8-28 0l-39 39c-4 4-6 9-6 14 0 6 2 11 6 14l30 31c6 6 8 14 5 22-3 8-11 13-19 13l-44 0c-11 0-20 8-20 20l0 54c0 12 9 20 20 20l43 0c8 0 16 3 19 11 3 7 2 16-4 22l-31 30c-4 5-6 10-6 15 0 6 2 11 6 14l39 39c7 8 20 8 28 0l30-30c6-7 15-8 22-5 9 4 13 11 13 19l0 44c0 11 8 20 20 20z m0-10c-5 0-11-4-11-10l0-44c0-12-6-22-18-27-11-4-24-1-32 7l-31 31c-4 4-10 4-14 0l-40-40c-4-4-4-10 0-14l31-31c9-9 11-21 7-32-5-12-15-18-27-18l-44 0c-6 0-10-6-10-11l0-54c0-6 4-11 10-11l44 0c12 0 22-7 27-18 4-11 1-24-7-32l-31-31c-4-4-4-11 0-15l40-39c4-4 10-4 14 0l31 31c6 6 14 9 21 9 4 0 7-1 11-3 12-4 18-14 18-27l0-43c0-6 6-11 11-11l54 0c3 0 6 2 8 4 2 2 3 4 3 7l0 43c0 13 7 23 18 27 11 5 24 2 32-6l31-31c4-4 11-4 15 0l39 39c4 4 4 11 0 15l-31 31c-9 9-11 21-6 32 4 11 14 18 27 18l43 0c6 0 11 5 11 11l0 54c0 6-6 11-11 11l-43 0c-13 0-23 6-27 18-5 11-2 24 6 32l31 31c4 4 4 10 0 14l-39 40c-4 4-11 4-15 0l-31-31c-9-9-21-11-32-7-11 5-18 15-18 27l0 44c0 6-5 10-11 10z m0-7l54 0c2 0 3-1 3-3l0-44c0-15 9-28 23-34 14-6 30-3 41 9l30 30c1 1 3 1 4 0l39-39c1-1 1-3 0-4l-30-30c-11-11-14-27-9-41 6-14 20-23 35-23l43 0c1 0 3-1 3-3l0-54c0-2-1-3-3-3l-43 0c-15 0-29-9-35-23-5-14-2-30 9-41l30-30c1-1 1-3 0-4l-39-39c-1-1-3-1-4 0l-30 30c-11 11-27 14-41 9-14-6-23-20-23-35l0-43c0 0 0-1-1-2 0-1-1-1-2-1l-54 0c-2 0-3 1-3 3l0 43c0 15-9 29-23 35-5 2-9 2-14 2-10 0-19-3-27-11l-30-30c-1-1-3-1-4 0l-39 39c-1 1-1 3 0 4l30 30c11 11 15 27 9 41-6 14-19 23-34 23l-44 0c-2 0-3 1-3 3l0 54c0 2 1 3 3 3l44 0c15 0 28 9 34 23 6 14 3 29-9 41l-30 30c-1 1-1 3 0 4l39 39c1 1 3 1 4 0l30-30c11-11 27-15 41-9 14 6 23 19 23 34l0 44c0 2 1 3 3 3z m27-129c-44 0-80-36-80-80 0-45 36-81 80-81 45 0 81 36 81 81 0 44-36 80-81 80z m0-7c41 0 73-33 73-73 0-41-32-73-73-73-40 0-73 32-73 73 0 40 33 73 73 73z m0-10c-35 0-63-28-63-63 0-35 28-64 63-64 35 0 64 29 64 64 0 35-29 63-64 63z m0-8c31 0 56-24 56-55 0-31-25-56-56-56-31 0-55 25-55 56 0 31 24 55 55 55z"/>
<glyph glyph-name="key" unicode="&#102;" d="M369 512c-78 0-142-64-142-143 0-25 6-50 20-72l-215-215c-7-7-7-18 0-25 4-3 8-5 13-5 5 0 9 2 12 5l29 29 54-54c4-3 8-5 13-5 5 0 9 2 13 5 3 3 5 8 5 13 0 5-2 9-5 12l-54 54 16 17 37-38c4-3 8-5 13-5 5 0 9 2 13 5 3 4 5 8 5 13 0 5-2 9-5 13l-38 37 17 16 54-54c3-3 7-5 12-5 5 0 9 2 13 5 7 7 7 19 0 26l-54 54 74 73c26-26 63-41 100-41 79 0 143 64 143 142 0 79-64 143-143 143z m0-250c-59 0-107 48-107 107 0 59 48 107 107 107 59 0 107-48 107-107 0-59-48-107-107-107z"/>
<glyph glyph-name="money" unicode="&#103;" d="M437 437c-48 48-113 75-181 75-68 0-133-27-181-75-48-48-75-113-75-181 0-68 27-133 75-181 48-48 113-75 181-75 68 0 133 27 181 75 48 48 75 113 75 181 0 68-27 133-75 181z m-181-407c-125 0-226 101-226 226 0 125 101 226 226 226 125 0 226-101 226-226 0-125-101-226-226-226z m16 241l-32 0c-18 0-33 15-33 33 0 18 15 33 33 33l64 0c9 0 15 7 15 15 0 9-6 15-15 15l-33 0 0 34c0 8-7 15-15 15-8 0-15-7-15-15l0-34-1 0c-35 0-63-28-63-63 0-35 28-63 63-63l32 0c18 0 33-15 33-33 0-19-15-33-33-33l-64 0c-9 0-15-7-15-15 0-9 6-15 15-15l33 0 0-34c0-8 7-15 15-15 8 0 15 7 15 15l0 34 1 0c35 0 63 28 63 63 0 35-28 63-63 63z"/>
<glyph glyph-name="nfe" unicode="&#104;" d="M512 256c0-141-115-256-256-256-141 0-256 115-256 256 0 141 115 256 256 256 141 0 256-115 256-256z m-442-44l25 0 0 40c0 14-2 29-3 41l1 0 11-24 31-57 27 0 0 114-25 0 0-40c0-14 2-30 3-42l-12 25-31 57-27 0z m120 0l27 0 0 44 41 0 0 22-41 0 0 26 48 0 0 22-75 0z m89 35l45 0 0 18-45 0z m105-38c10 0 22 4 32 10l-9 16c-7-4-13-6-20-6-12 0-21 6-23 18l54 0c0 3 1 7 1 12 0 24-13 42-38 42-22 0-43-18-43-46 0-29 20-46 46-46z m-20 55c2 12 9 17 17 17 11 0 15-7 15-17z"/>
<glyph glyph-name="pen" unicode="&#105;" d="M411 223c2 0 4 1 6 2l75 78c8 8 13 20 13 33 0 12-5 24-13 33l-9 8 21 22c11 10 11 27 0 38l-11 12c-5 5-12 8-19 8-7 0-14-3-19-8l-21-21-3 2c-3 3-8 3-11 0l-250-256c-12-12-20-26-25-43l-18-57c-1-3 0-7 2-9 2-2 5-3 8-2l57 18c15 5 30 14 42 26l244 250 1-1c11-12 11-30-1-42l-75-77c-3-3-3-8 0-12 2-1 4-2 6-2z m-205-119c-6-3-11-5-17-7l-42-13 13 43c2 5 4 11 7 17l1 1 39-40z m18 15c-1-1-2-2-3-3l-1-1-42 44 0 1c1 1 2 2 3 3l98 100 43-44z m110 111l-43 44 22 23 43-44z m33 35l-43 44 102 104 43-44z m105 124l-27 27 21 22c2 2 5 3 8 3 3 0 5-1 7-3l12-12c4-5 4-12 0-16z m-466 76c0 0-1 1-1 3 0 2-1 3-1 3 0 0 0 0-1-1 0-1-1-3-1-3 0-1-1-1-1-1 0 1 0 1 0 1 0 0 1 2 2 3 0 1 1 1 1 1 1 0 1-1 2-3 0-1 0-2 0-2 1 0 1 0 1 1 1 1 1 1 2 1 0 0 1 0 1 0 2-2 4-2 6-1 0 0 0 0 1 0 0 0 0-1 0-1-1 0-1 0-1 0-1 0-4 0-6 1-1 1-1 1-1 1 0 0-1-1-1-2 0 0-1-1-2-1z"/>
<glyph glyph-name="person" unicode="&#106;" d="M134 360c0 64 55 117 122 117 67 0 122-53 122-117 0-65-55-117-122-117-67 0-122 52-122 117z m210-133l-6 2 6 4c44 28 71 76 71 127 0 84-71 152-159 152-88 0-159-68-159-152 0-51 27-99 71-127l6-4-6-2c-100-35-167-126-168-227l37 0c2 115 99 207 219 207 120 0 217-92 219-207l37 0c-1 101-68 192-168 227z"/>
<glyph glyph-name="plus" unicode="&#107;" d="M499 280l0-18-499 0 0 18z m-267 232l0-499 18 0 0 499z"/>
<glyph glyph-name="plus-circle" unicode="&#108;" d="M256 0c141 0 256 115 256 256 0 141-115 256-256 256-141 0-256-115-256-256 0-141 115-256 256-256z m19 274l105 0c10 0 18-8 18-18 0-10-8-19-18-19l-105 0 0-105c0-10-9-18-19-18-10 0-18 8-18 18l0 105-106 0c-10 0-18 9-18 19 0 10 8 18 18 18l106 0 0 106c0 10 8 18 18 18 10 0 19-8 19-18z"/>
<glyph glyph-name="search" unicode="&#109;" d="M218 512c-120 0-218-98-218-218 0-120 98-218 218-218 120 0 218 98 218 218 0 120-98 218-218 218z m0-57c89 0 161-72 161-161 0-89-72-161-161-161-89 0-161 72-161 161 0 89 72 161 161 161z m134-266c-12 0-22-7-27-18-4-11-1-23 7-31l131-132c8-7 18-10 28-7 10 2 18 10 20 20 3 10 0 20-7 28l-132 131c-5 6-13 9-20 9z"/>
<glyph glyph-name="send" unicode="&#110;" d="M512 256c0-141-115-256-256-256-141 0-256 115-256 256 0 141 115 256 256 256 141 0 256-115 256-256z m-419-140c48 46 105 89 199 86l0-57 142 114-142 113 0-57c-99 0-199-88-199-199z"/>
<glyph glyph-name="shutdown" unicode="&#111;" d="M256 512c-141 0-256-115-256-256 0-141 115-256 256-256 141 0 256 115 256 256 0 141-115 256-256 256z m-18-62c0 10 8 18 18 18 10 0 18-8 18-18l0-159c0-9-8-17-18-17-10 0-18 8-18 17z m181-234c-19-75-86-128-163-128-6 0-13 1-19 1-73 9-132 64-146 136-13 72 22 145 86 179 5 3 11 3 16 1 5-2 9-7 10-12l0-1c2-7-2-15-9-19-54-28-81-90-66-149 14-59 67-100 128-100 2 0 4 0 7 0 59 3 109 45 122 103 13 59-14 118-67 146-7 4-11 12-9 20 1 5 5 10 10 12 5 2 11 2 16-1 68-36 102-114 84-188z"/>
<glyph glyph-name="angle-left" unicode="&#112;" d="M344 357c0-3-1-5-3-7l-112-112 112-113c2-1 3-4 3-6 0-3-1-5-3-7l-14-14c-2-2-5-3-7-3-2 0-5 1-7 3l-133 133c-2 2-3 4-3 7 0 2 1 4 3 6l133 133c2 2 5 3 7 3 2 0 5-1 7-3l14-14c2-2 3-4 3-6z"/>
<glyph glyph-name="angle-down" unicode="&#113;" d="M399 302c0-3-1-5-3-7l-133-133c-2-2-5-3-7-3-2 0-5 1-7 3l-133 133c-2 2-3 4-3 7 0 2 1 4 3 6l15 15c1 1 4 2 6 2 3 0 5-1 7-2l112-113 112 113c2 1 4 2 7 2 2 0 5-1 6-2l15-15c2-2 3-4 3-6z"/>
<glyph glyph-name="angle-right" unicode="&#114;" d="M335 238c0-3-1-5-3-7l-133-133c-2-2-5-3-7-3-2 0-5 1-7 3l-14 14c-2 2-3 4-3 7 0 2 1 5 3 6l112 113-112 112c-2 2-3 4-3 7 0 2 1 4 3 6l14 14c2 2 5 3 7 3 2 0 5-1 7-3l133-133c2-2 3-4 3-6z"/>
<glyph glyph-name="angle-up" unicode="&#115;" d="M399 174c0-3-1-5-3-7l-15-14c-1-2-4-3-6-3-3 0-5 1-7 3l-112 112-112-112c-2-2-4-3-7-3-2 0-5 1-6 3l-15 14c-2 2-3 4-3 7 0 2 1 4 3 6l133 133c2 2 5 3 7 3 2 0 5-1 7-3l133-133c2-2 3-4 3-6z"/>
<glyph glyph-name="arrow-circle-right" unicode="&#116;" d="M404 256c0 5-2 9-5 13l-26 26-104 103c-3 4-8 5-13 5-5 0-9-1-13-5l-26-26c-3-3-5-7-5-13 0-5 2-9 5-12l54-54-143 0c-5 0-9-2-13-6-3-3-5-8-5-13l0-36c0-5 2-10 5-13 4-4 8-6 13-6l143 0-54-54c-3-3-5-7-5-12 0-5 2-10 5-13l26-26c4-4 8-5 13-5 5 0 10 1 13 5l104 103 26 26c3 4 5 8 5 13z m71 0c0-40-9-77-29-110-20-34-46-60-80-80-33-20-70-29-110-29-40 0-77 9-110 29-34 20-60 46-80 80-20 33-29 70-29 110 0 40 9 77 29 110 20 34 46 60 80 80 33 20 70 29 110 29 40 0 77-9 110-29 34-20 60-46 80-80 20-33 29-70 29-110z"/>
<glyph glyph-name="arrow-circle-up" unicode="&#117;" d="M403 256c0 5-1 10-5 13l-103 104-26 26c-4 3-8 5-13 5-5 0-9-2-13-5l-26-26-103-104c-4-3-5-8-5-13 0-5 1-9 5-13l26-26c3-3 7-5 13-5 5 0 9 2 12 5l54 54 0-143c0-5 2-9 6-13 3-3 8-5 13-5l36 0c5 0 10 2 13 5 4 4 6 8 6 13l0 143 54-54c3-3 7-5 12-5 5 0 10 2 13 5l26 26c4 4 5 8 5 13z m72 0c0-40-9-77-29-110-20-34-46-60-80-80-33-20-70-29-110-29-40 0-77 9-110 29-34 20-60 46-80 80-20 33-29 70-29 110 0 40 9 77 29 110 20 34 46 60 80 80 33 20 70 29 110 29 40 0 77-9 110-29 34-20 60-46 80-80 20-33 29-70 29-110z"/>
<glyph glyph-name="arrow-down" unicode="&#118;" d="M479 274c0-10-4-18-11-25l-186-187c-7-7-16-10-26-10-10 0-19 3-26 10l-186 187c-7 6-11 15-11 25 0 10 4 19 11 26l21 22c8 7 17 10 26 10 11 0 19-3 26-10l84-84 0 201c0 10 4 18 11 26 7 7 16 10 26 10l36 0c10 0 19-3 26-10 7-8 11-16 11-26l0-201 84 84c7 7 15 10 26 10 9 0 18-3 26-10l21-22c7-7 11-16 11-26z"/>
<glyph glyph-name="arrow-left" unicode="&#119;" d="M475 256l0-37c0-10-3-18-9-25-6-8-14-11-24-11l-201 0 84-84c7-7 10-16 10-26 0-10-3-19-10-26l-22-21c-7-7-15-11-26-11-9 0-18 4-26 11l-186 186c-7 7-10 16-10 26 0 10 3 18 10 26l186 185c8 8 16 11 26 11 10 0 19-3 26-11l22-21c7-7 10-16 10-26 0-10-3-18-10-26l-84-83 201 0c10 0 18-4 24-11 6-7 9-16 9-26z"/>
<glyph glyph-name="arrow-right" unicode="&#120;" d="M457 238c0-11-3-19-10-26l-186-186c-8-7-17-11-26-11-10 0-19 4-26 11l-22 21c-7 7-10 16-10 26 0 10 3 19 10 26l84 84-201 0c-10 0-18 3-24 11-6 7-9 15-9 25l0 37c0 10 3 19 9 26 6 7 14 11 24 11l201 0-84 84c-7 6-10 15-10 25 0 11 3 19 10 26l22 21c7 8 16 11 26 11 10 0 18-3 26-11l186-186c7-6 10-15 10-25z"/>
<glyph glyph-name="arrow-up" unicode="&#121;" d="M479 235c0-10-4-19-11-26l-21-22c-8-7-16-10-26-10-11 0-19 3-26 10l-84 84 0-201c0-10-4-18-11-24-7-6-16-9-26-9l-36 0c-10 0-19 3-26 9-7 6-11 14-11 24l0 201-84-84c-7-7-15-10-26-10-10 0-18 3-25 10l-22 22c-7 7-11 16-11 26 0 10 4 18 11 26l186 186c7 7 16 10 26 10 10 0 19-3 26-10l186-186c7-8 11-17 11-26z"/>
<glyph glyph-name="check-circle-1" unicode="&#122;" d="M403 302c0 6-1 10-5 13l-26 26c-3 4-8 6-13 6-5 0-9-2-12-6l-117-116-65 64c-3 4-7 6-12 6-5 0-10-2-13-6l-26-25c-4-4-5-8-5-13 0-6 1-10 5-13l103-104c4-3 8-5 13-5 5 0 10 2 13 5l155 155c4 4 5 8 5 13z m72-46c0-40-9-77-29-110-20-34-46-60-80-80-33-20-70-29-110-29-40 0-77 9-110 29-34 20-60 46-80 80-20 33-29 70-29 110 0 40 9 77 29 110 20 34 46 60 80 80 33 20 70 29 110 29 40 0 77-9 110-29 34-20 60-46 80-80 20-33 29-70 29-110z"/>
<glyph glyph-name="check-circle-o" unicode="&#65;" d="M371 280l-120-121c-4-3-8-5-13-5-5 0-10 2-13 5l-84 84c-4 4-6 8-6 13 0 5 2 9 6 13l29 29c4 4 8 5 13 5 5 0 9-1 13-5l42-42 78 79c4 3 8 5 13 5 5 0 9-2 13-5l29-30c4-3 6-7 6-12 0-5-2-10-6-13z m40-24c0 28-7 54-20 78-14 24-33 43-57 57-24 13-50 20-78 20-28 0-54-7-78-20-24-14-43-33-57-57-13-24-20-50-20-78 0-28 7-54 20-78 14-24 33-43 57-57 24-13 50-20 78-20 28 0 54 7 78 20 24 14 43 33 57 57 13 24 20 50 20 78z m64 0c0-40-9-77-29-110-20-34-46-60-80-80-33-20-70-29-110-29-40 0-77 9-110 29-34 20-60 46-80 80-20 33-29 70-29 110 0 40 9 77 29 110 20 34 46 60 80 80 33 20 70 29 110 29 40 0 77-9 110-29 34-20 60-46 80-80 20-33 29-70 29-110z"/>
<glyph glyph-name="sign-out" unicode="&#66;" d="M201 101c0-1 0-3 0-6 1-3 1-6 1-8-1-2-1-4-1-6-1-3-2-5-3-6-2-1-4-2-6-2l-91 0c-23 0-42 8-59 24-16 16-24 36-24 58l0 202c0 22 8 42 24 58 17 16 36 24 59 24l91 0c2 0 5-1 6-3 2-2 3-4 3-6 0-1 0-3 0-6 1-3 1-6 1-8-1-2-1-4-1-6-1-3-2-5-3-6-2-1-4-2-6-2l-91 0c-13 0-24-4-33-13-9-9-13-20-13-32l0-202c0-12 4-23 13-32 9-9 20-13 33-13l89 0 3-1 3 0 3-2 2-3z m265 155c0-5-2-9-5-13l-156-155c-3-4-7-6-12-6-5 0-10 2-13 6-4 3-6 8-6 13l0 82-128 0c-5 0-9 2-13 5-3 4-5 8-5 13l0 110c0 5 2 9 5 13 4 3 8 5 13 5l128 0 0 82c0 5 2 10 6 13 3 4 8 6 13 6 5 0 9-2 12-6l156-155c3-4 5-8 5-13z"/>
<glyph glyph-name="plus-1" unicode="&#67;" d="M457 302l0-55c0-8-3-14-8-20-5-5-12-8-19-8l-119 0 0-118c0-8-3-15-8-20-5-5-12-8-20-8l-54 0c-8 0-15 3-20 8-5 5-8 12-8 20l0 118-119 0c-7 0-14 3-19 8-5 6-8 12-8 20l0 55c0 7 3 14 8 19 5 5 12 8 19 8l119 0 0 119c0 8 3 14 8 19 5 6 12 8 20 8l54 0c8 0 15-2 20-8 5-5 8-11 8-19l0-119 119 0c7 0 14-3 19-8 5-5 8-12 8-19z"/>
<glyph glyph-name="plus-square" unicode="&#68;" d="M402 238l0 36c0 5-2 10-5 13-4 4-8 6-13 6l-91 0 0 91c0 5-2 9-6 13-3 3-8 5-13 5l-36 0c-5 0-10-2-13-5-4-4-6-8-6-13l0-91-91 0c-5 0-9-2-13-6-3-3-5-8-5-13l0-36c0-5 2-10 5-13 4-4 8-6 13-6l91 0 0-91c0-5 2-9 6-13 3-3 8-5 13-5l36 0c5 0 10 2 13 5 4 4 6 8 6 13l0 91 91 0c5 0 9 2 13 6 3 3 5 8 5 13z m73 155l0-274c0-23-8-42-24-58-16-16-35-24-58-24l-274 0c-23 0-42 8-58 24-16 16-24 35-24 58l0 274c0 23 8 42 24 58 16 16 35 24 58 24l274 0c23 0 42-8 58-24 16-16 24-35 24-58z"/>
<glyph glyph-name="plus-square-o" unicode="&#69;" d="M384 283l0-18c0-3-1-5-3-6-1-2-3-3-6-3l-101 0 0-101c0-2-1-4-2-6-2-2-4-3-7-3l-18 0c-3 0-5 1-7 3-1 2-2 4-2 6l0 101-101 0c-3 0-5 1-6 3-2 1-3 3-3 6l0 18c0 3 1 5 3 7 1 2 3 3 6 3l101 0 0 100c0 3 1 5 2 7 2 1 4 2 7 2l18 0c3 0 5-1 7-2 1-2 2-4 2-7l0-100 101 0c3 0 5-1 6-3 2-2 3-4 3-7z m37-128l0 238c0 13-5 23-14 32-9 9-20 14-32 14l-238 0c-12 0-23-5-32-14-9-9-14-19-14-32l0-238c0-12 5-23 14-32 9-9 20-13 32-13l238 0c12 0 23 4 32 13 9 9 14 20 14 32z m36 238l0-238c0-22-8-42-24-58-16-16-35-24-58-24l-238 0c-23 0-42 8-58 24-16 16-24 36-24 58l0 238c0 23 8 42 24 58 16 16 35 24 58 24l238 0c23 0 42-8 58-24 16-16 24-35 24-58z"/>
<glyph glyph-name="pie-chart" unicode="&#70;" d="M219 258l156-156c-20-21-43-37-70-48-27-12-56-17-86-17-39 0-76 9-110 29-33 20-60 46-80 80-19 33-29 70-29 110 0 40 10 77 29 110 20 34 47 60 80 80 34 20 71 29 110 29z m54-2l221 0c0-30-6-58-17-85-12-27-28-51-48-71z m202 37l-219 0 0 219c40 0 77-10 110-29 34-20 60-47 80-80 20-34 29-71 29-110z"/>
<glyph glyph-name="times" unicode="&#71;" d="M426 134c0-7-3-14-8-19l-39-39c-5-5-12-8-20-8-7 0-14 3-19 8l-84 84-84-84c-5-5-12-8-19-8-8 0-15 3-20 8l-39 39c-5 5-8 12-8 19 0 8 3 14 8 20l84 84-84 84c-5 5-8 12-8 19 0 8 3 14 8 20l39 38c5 6 12 8 20 8 7 0 14-2 19-8l84-84 84 84c5 6 12 8 19 8 8 0 15-2 20-8l39-38c5-6 8-12 8-20 0-7-3-14-8-19l-84-84 84-84c5-6 8-12 8-20z"/>
<glyph glyph-name="ban" unicode="&#72;" d="M411 257c0 31-8 59-24 84l-216-215c26-17 55-25 85-25 21 0 41 4 60 12 20 8 36 19 50 33 14 14 25 31 33 50 8 19 12 40 12 61z m-285-86l216 216c-26 17-55 26-86 26-28 0-54-7-78-21-24-14-43-33-57-57-13-24-20-50-20-78 0-31 8-59 25-86z m349 86c0-30-5-59-17-86-12-27-27-51-47-70-19-20-43-35-70-47-27-12-55-17-85-17-30 0-58 5-85 17-27 12-51 27-70 47-20 19-35 43-47 70-12 27-17 56-17 86 0 30 5 58 17 85 12 28 27 51 47 71 19 19 43 35 70 46 27 12 55 18 85 18 30 0 58-6 85-18 27-11 51-27 70-46 20-20 35-43 47-71 12-27 17-55 17-85z"/>
<glyph glyph-name="area-chart" unicode="&#73;" d="M549 73l0-36-586 0 0 438 37 0 0-402z m-110 293l73-256-475 0 0 164 128 165 164-165z"/>
<glyph glyph-name="bars" unicode="&#74;" d="M475 128l0-37c0-5-1-9-5-12-4-4-8-6-13-6l-402 0c-5 0-9 2-13 6-4 3-5 7-5 12l0 37c0 5 1 9 5 13 4 3 8 5 13 5l402 0c5 0 9-2 13-5 4-4 5-8 5-13z m0 146l0-36c0-5-1-10-5-13-4-4-8-6-13-6l-402 0c-5 0-9 2-13 6-4 3-5 8-5 13l0 36c0 5 1 10 5 13 4 4 8 6 13 6l402 0c5 0 9-2 13-6 4-3 5-8 5-13z m0 147l0-37c0-5-1-9-5-13-4-3-8-5-13-5l-402 0c-5 0-9 2-13 5-4 4-5 8-5 13l0 37c0 5 1 9 5 12 4 4 8 6 13 6l402 0c5 0 9-2 13-6 4-3 5-7 5-12z"/>
<glyph glyph-name="home" unicode="&#75;" d="M507 304l-243 178c-5 3-11 3-16 0l-243-178c-5-4-7-13-2-19 4-6 12-7 18-3l235 172 235-172c2-1 5-2 8-2 4 0 8 2 10 5 5 6 3 15-2 19z m-65-25c-7 0-13-6-13-13l0-212-106 0 0 116c0 37-30 67-67 67-37 0-67-30-67-67l0-116-106 0 0 212c0 7-6 13-13 13-8 0-14-6-14-13l0-225c0-7 6-13 14-13l133 0c7 0 13 5 13 12 0 0 0 1 0 1l0 129c0 22 18 40 40 40 22 0 40-18 40-40l0-129c0 0 0-1 0-1 0-7 6-12 13-12l133 0c8 0 14 6 14 13l0 225c0 7-6 13-14 13z"/>
<glyph glyph-name="newspaper" unicode="&#76;" d="M256 366l-110 0 0-110 110 0z m37-183l0-37-183 0 0 37z m0 219l0-183-183 0 0 183z m182-219l0-37-146 0 0 37z m0 73l0-37-146 0 0 37z m0 73l0-36-146 0 0 36z m0 73l0-36-146 0 0 36z m-438-274l0 274-37 0 0-274c0-5 2-9 5-13 4-3 8-5 13-5 5 0 10 2 13 5 4 4 6 8 6 13z m475 0l0 311-439 0 0-311c0-6-1-12-3-18l424 0c5 0 9 2 13 5 3 4 5 8 5 13z m37 347l0-347c0-15-6-28-16-39-11-11-24-16-39-16l-476 0c-15 0-28 5-39 16-10 11-16 24-16 39l0 311 74 0 0 36z"/>
</font>
</defs>
</svg>
